<?xml version="1.0" encoding="UTF-8"?>
<svg width="500px" height="500px" viewBox="0 0 500 500" version="1.1" xmlns="http://www.w3.org/2000/svg" xmlns:xlink="http://www.w3.org/1999/xlink">
    <title>Club Balonmano Vetusta</title>
    <desc>Icono con el logotipo del Club Balonmano Vetusta</desc>
    <defs>
        <filter x="-5.1%" y="-3.6%" width="110.1%" height="107.1%" filterUnits="objectBoundingBox" id="filter-1">
            <feOffset dx="5" dy="5" in="SourceAlpha" result="shadowOffsetOuter1"></feOffset>
            <feGaussianBlur stdDeviation="2" in="shadowOffsetOuter1" result="shadowBlurOuter1"></feGaussianBlur>
            <feColorMatrix values="0 0 0 0 0   0 0 0 0 0   0 0 0 0 0  0 0 0 0.371699833 0" type="matrix" in="shadowBlurOuter1" result="shadowMatrixOuter1"></feColorMatrix>
            <feMerge>
                <feMergeNode in="shadowMatrixOuter1"></feMergeNode>
                <feMergeNode in="SourceGraphic"></feMergeNode>
            </feMerge>
        </filter>
        <polygon id="path-2" points="0.06 0.402 47.481 0.402 47.481 117.993 0.06 117.993"></polygon>
        <polygon id="path-4" points="0.829734623 0.508 335.794 0.508 335.794 490.94 0.829734623 490.94"></polygon>
    </defs>
    <g id="Favicon" stroke="none" stroke-width="1" fill="none" fill-rule="evenodd">
        <ellipse id="Oval" stroke="#151111" stroke-width="3" fill="#FFF34F" cx="250.5" cy="250" rx="203" ry="248.5"></ellipse>
        <g id="LOGO-CAMISETA-CALENTAR-VETUSTA" filter="url(#filter-1)" transform="translate(77.000000, 5.000000)">
            <g id="Group-3" transform="translate(0.000000, 233.000000)">
                <mask id="mask-3" fill="white">
                    <use xlink:href="#path-2"></use>
                </mask>
                <g id="Clip-2"></g>
                <polyline id="Fill-1" fill="#000000" mask="url(#mask-3)" points="47.481 0.402 35.136 117.993 12.21 117.993 0 0.402 18.722 0.402 23.198 79.924 23.74 79.924 28.895 0.402 47.481 0.402"></polyline>
            </g>
            <polyline id="Fill-4" fill="#000000" points="89 278.577978 89 293.917145 77.1028226 293.917145 77.1028226 335.364807 89 335.364807 89 351 57 351 57 233 89 233 89 248.340171 77.1028226 248.340171 77.1028226 278.577978 89 278.577978"></polyline>
            <polyline id="Fill-5" fill="#000000" points="126.350271 248.63419 126.350271 351 106.649729 351 106.649729 248.63419 97 248.63419 97 233 136 233 136 248.63419 126.350271 248.63419"></polyline>
            <path d="M190,233 L189.190594,339.642634 L187.304628,345.099548 C186.045331,347.363395 184.340116,348.739164 182.18501,349.229865 L174.50608,350.851485 L167.633577,351 L156.047648,350.409955 C154.161683,350.312617 152.228046,349.550978 150.253691,348.124032 C148.27735,346.699093 147.108428,345.099548 146.750899,343.329413 L145,336.397386 L145,233 L164.265852,233 L165.209331,334.479739 L166.69109,335.364807 L167.49851,335.364807 L168.847189,335.069784 L169.924742,334.332228 L170.328949,233 L190,233" id="Fill-6" fill="#000000"></path>
            <path d="M234.396237,233.590045 C239.379856,234.673802 242.416049,237.081146 243.504815,240.818098 L245,248.192659 L245,273.709102 L225.540675,273.709102 L225.540675,253.354551 L225.270725,250.846859 L224.595351,249.224235 L223.242612,248.63419 L222.297288,248.63419 L220.946541,248.782704 L220.000221,249.666769 L219.594798,251.436904 L219.594798,274.150632 C219.865744,275.528408 220.584947,276.560987 221.756392,277.247366 L223.918982,279.016498 L235.676259,285.950532 C241.79845,289.392462 244.90736,294.014482 245,299.81559 L245,327.989242 C245,333.004626 244.73005,336.987431 244.189153,339.936653 L242.431987,345.542082 C241.35119,347.411562 239.682678,348.788334 237.433426,349.672398 L230.270282,351 L210.946431,350.557466 L205.136027,348.344797 C203.42269,346.969028 202.206419,345.24706 201.487216,343.182905 L200,335.364807 L200,302.177777 L219.594798,302.177777 L219.594798,330.645449 L220.000221,333.594671 L220.541118,334.921269 L222.432761,335.660833 L222.838185,335.807341 L224.324405,335.364807 L225.135252,334.332228 L225.540675,332.412574 L225.540675,303.19129 L223.922966,300.385565 L221.361926,298.468922 L208.638406,291.135504 C202.877809,287.791914 200,282.577842 200,275.496296 L200,256.166297 C200,250.854887 200.226121,246.869072 200.680354,244.214872 L202.447482,238.607436 C204.168788,236.247255 206.070393,234.86948 208.157277,234.475113 L215.77067,233.147511 L222.840177,233 L234.396237,233.590045" id="Fill-7" fill="#000000"></path>
            <polyline id="Fill-8" fill="#000000" points="284.350027 248.63419 284.350027 351 264.649973 351 264.649973 248.63419 255 248.63419 255 233 294 233 294 248.63419 284.350027 248.63419"></polyline>
            <g id="Group-13" transform="translate(10.000000, 0.000000)">
                <mask id="mask-5" fill="white">
                    <use xlink:href="#path-4"></use>
                </mask>
                <g id="Clip-10"></g>
                <path d="M311.104,256.773 L310.562,256.773 L307.441,310.131 L314.088,310.131 L311.104,256.773 Z M316.395,350.993 L314.902,325.857 L306.627,325.857 L305.271,350.993 L286.007,350.993 L297.538,233.402 L323.855,233.402 L335.794,350.993 L316.395,350.993 L316.395,350.993 Z" id="Fill-9" fill="#000000" mask="url(#mask-5)"></path>
                <path d="M230.619,468.358 L253.42,443.07 L299.008,408.533 C282.51,434.706 258.708,455.464 230.619,468.358 Z M38.249,421.996 L58.573,418.624 L59.009,418.551 L114.993,448.109 L138.731,478.979 L138.177,479.501 L136.896,480.707 C123.233,478.359 109.884,474.22 97.19,468.393 C74.116,457.804 53.858,441.837 38.249,421.996 Z M233.901,452.771 L214.386,474.414 L146.058,475.383 L123.071,445.49 L165.825,407.387 L225.317,404.015 L225.64,403.997 L245.801,439.574 L233.901,452.771 Z M323.928,358.591 C321.781,358.058 319.613,359.365 319.081,361.508 C316.676,371.184 313.339,380.7 309.161,389.794 C307.393,393.65 305.437,397.496 303.327,401.264 L302.964,401.098 L304.389,362.621 C304.471,360.414 302.747,358.558 300.54,358.476 C300.468,358.471956 300.4,358.488 300.329,358.49 C300.297,358.488 300.267,358.477 300.233,358.476 C298.048,358.392 296.17,360.117 296.088,362.326 L294.647,401.226 L252.043,433.503 L232.744,399.45 L250.73,364.295 C251.737,362.329 250.959,359.919 248.992,358.912 C248.459,358.64 247.895,358.509 247.334,358.486 C245.772,358.365 244.221,359.171 243.464,360.652 L225.378,395.999 L166.293,399.347 L140.854,360.291 C139.649,358.439 137.171,357.916 135.32,359.122 C133.47,360.328 132.946,362.805 134.151,364.656 L158.978,402.774 L117.044,440.145 L63.904,412.09 L68.293,362.828 C68.489,360.628 66.864,358.685 64.663,358.489 C62.464,358.295 60.521,359.918 60.324,362.119 L55.981,410.861 L32.444,414.133 C21.395,398.161 13.415,380.469 8.713,361.51 C8.181,359.367 6.014,358.061 3.868,358.591 C1.724,359.123 0.417,361.293 0.948,363.436 C6.088,384.162 14.962,403.447 27.321,420.755 C27.328,420.765 27.337,420.774 27.345,420.784 C27.46,420.952 27.578,421.12 27.7,421.286 L27.835,421.468 C27.836,421.469 27.837,421.47 27.838,421.472 C44.713,444.85 67.541,463.59 93.853,475.665 C107.804,482.068 122.51,486.53 137.563,488.925 C137.564,488.925 137.565,488.926 137.566,488.926 C146.2,490.301 155.017,491 163.769,491 C163.77,491 163.769,491 163.77,491 C181.996,491 200.037,488.037 217.388,482.197 C217.476,482.169 217.564,482.141 217.65,482.107 C255.844,469.184 288.075,443.035 308.422,408.455 C308.423,408.454 308.423,408.453 308.424,408.452 C311.364,403.461 314.06,398.304 316.432,393.131 C320.816,383.588 324.319,373.597 326.845,363.438 C327.378,361.295 326.071,359.125 323.928,358.591 L323.928,358.591 Z" id="Fill-11" fill="#000000" mask="url(#mask-5)"></path>
                <path d="M284.737,215.584 L276.883,211.654 L258.328,189.387 C257.954,188.939 257.486,188.577 256.958,188.329 L246.272,183.3 L246.272,175.529 C246.272,173.811 245.176,172.285 243.548,171.738 C241.917,171.189 240.122,171.743 239.086,173.112 L236.057,177.104 L212.213,57.563 C211.902,56.005 210.699,54.779 209.147,54.438 C208.221,54.237 207.28,54.37 206.472,54.783 L203.228,46.566 C202.62,45.026 201.147,44.04 199.472,44.035 C198.889,44.04 198.329,44.172 197.821,44.407 L182.25,3.096 C181.64,1.477 180.079,0.442 178.327,0.511 C176.598,0.59 175.115,1.771 174.652,3.439 L164.099,41.496 C163.198,40.989 162.114,40.84 161.079,41.124 C159.504,41.555 158.349,42.901 158.162,44.523 L145.859,151.112 L89.314,154.353 C87.312,154.467 85.705,156.045 85.554,158.044 L83.695,182.53 L80.065,177.994 C79.354,177.105 78.3,176.562 77.163,176.499 C76.029,176.433 74.919,176.86 74.114,177.665 L67.12,184.659 L59.011,185.397 C58.214,185.469 57.456,185.779 56.837,186.285 C45.981,195.177 36.243,205.441 27.894,216.791 C26.585,218.57 26.966,221.074 28.746,222.383 C30.525,223.691 33.03,223.31 34.338,221.531 C42.05,211.049 51.003,201.539 60.966,193.252 L69.286,192.495 C70.219,192.411 71.092,192.002 71.753,191.34 L76.611,186.481 L79.93,190.628 C80.609,191.478 81.606,192.014 82.69,192.112 L86.89,192.495 C87.959,192.594 89.019,192.258 89.836,191.566 C90.654,190.874 91.161,189.883 91.241,188.815 L93.266,162.139 L149.72,158.904 C151.694,158.791 153.29,157.251 153.474,155.28 L153.646,153.421 L165.137,53.87 C165.631,53.967 166.149,53.973 166.661,53.873 C168.154,53.587 169.355,52.479 169.762,51.014 L179.087,17.386 L193.475,55.556 C194.063,57.114 195.553,58.145 197.218,58.145 C197.219,58.145 197.221,58.145 197.222,58.145 C197.863,58.145 198.479,57.991 199.027,57.713 L201.515,64.014 C202.051,65.371 203.283,66.329 204.731,66.513 C205.102,66.56 205.475,66.555 205.838,66.5 L229.949,187.384 C230.257,188.928 231.441,190.147 232.976,190.5 C234.508,190.851 236.106,190.273 237.059,189.019 L238.488,187.135 C238.834,188.141 239.573,188.988 240.569,189.457 L252.749,195.19 L271.271,217.418 C271.625,217.841 272.062,218.187 272.555,218.433 L281.157,222.738 C281.732,223.025 282.343,223.162 282.944,223.162 C284.411,223.162 285.823,222.351 286.524,220.95 C287.513,218.974 286.713,216.572 284.737,215.584" id="Fill-12" fill="#000000" mask="url(#mask-5)"></path>
            </g>
            <path d="M94.3088507,213.515603 L92.9805373,213.515603 L92.9805373,223.1579 L93.6452045,223.231008 L94.1659116,223.1579 L94.8305788,223.013661 L95.1164572,222.577979 L95.1164572,214.567759 L95.0215047,213.951284 L94.3088507,213.515603 Z M94.974539,202.241228 L94.4048242,201.8421 L93.6921703,201.768992 L92.9805373,201.768992 L92.9805373,209.273387 L94.1659116,209.273387 L94.7356263,209.057028 L95.0215047,208.656912 L95.1164572,207.969306 L95.1164572,202.784595 L94.974539,202.241228 Z M100.6237,199.123288 C101.098462,199.485862 101.461936,199.969953 101.715143,200.573585 L102,203.112591 L102,206.989269 C102,209.309941 101.00351,210.74937 99.009508,211.304592 C99.6731542,211.520951 100.117287,211.727431 100.337821,211.920079 C101.098462,212.40417 101.587518,212.96038 101.811116,213.587722 C101.936698,214.023404 102,214.760407 102,215.798733 L102,222.650099 C102,223.279417 101.840725,223.979866 101.525238,224.752436 C101.366984,225.188117 100.955523,225.635654 100.291877,226.094059 C99.6568183,226.409212 98.9451854,226.626559 98.1539149,226.747087 L93.9760066,227 L86,227 L86,198 L94.9265522,198 L98.5347457,198.253901 L100.6237,199.123288 L100.6237,199.123288 Z" id="Fill-14" fill="#000000"></path>
            <path d="M114.570223,203.763644 L114.383957,203.763644 L113.319154,216.923997 L115.588211,216.923997 L114.570223,203.763644 Z M116.376106,227 L115.866116,220.801662 L113.041249,220.801662 L112.578075,227 L106,227 L109.938478,198 L118.92506,198 L123,227 L116.376106,227 L116.376106,227 Z" id="Fill-15" fill="#000000"></path>
            <polyline id="Fill-16" fill="#000000" points="137 223.1579 137 227 126 227 126 198 132.815734 198 132.815734 223.1579 137 223.1579"></polyline>
            <path d="M149.480946,202.675922 L149.297601,202.205662 L148.88777,201.878654 L148.386757,201.805546 L148.249493,201.805546 L147.74848,201.987327 L147.611216,222.796314 L147.929865,223.086768 L148.568142,223.192478 L148.797568,223.121346 L149.207399,222.976119 L149.480946,202.675922 Z M155.095039,199.377189 C155.69998,200.127035 156,201.577332 156,203.728078 L156,223.303127 L155.543107,225.04289 C155.088176,226.106902 154.055755,226.686823 152.443885,226.783641 L148.568142,227 L145.924832,226.965422 L143.554089,226.565306 C142.944245,226.420079 142.412837,226.117769 141.957906,225.658377 C141.409831,225.199973 141.136283,224.728725 141.136283,224.244634 L141,201.552633 C141.121577,200.949002 141.271586,200.404647 141.45199,199.920556 C141.906922,198.882231 142.962873,198.313177 144.625727,198.216359 L148.476959,198 L151.106543,198.108673 C151.739918,198.133372 152.314465,198.194624 152.829205,198.290454 C153.944964,198.459392 154.700895,198.822954 155.095039,199.377189 L155.095039,199.377189 Z" id="Fill-17" fill="#000000"></path>
            <polyline id="Fill-18" fill="#000000" points="175 198 175 227 168.847784 227 165.089665 212.146317 164.9121 212.137426 165.147172 227 159 227 159 198 165.147172 198 168.852828 212.464434 169.181726 212.464434 169.181726 198 175 198"></polyline>
            <polyline id="Fill-19" fill="#000000" points="200 198 200 227 194.033537 227 194.219554 209.854296 194.033537 209.854296 191.349723 227 187.742788 227 185.060963 209.854296 184.827199 209.854296 185.060963 227 179 227 179 198 186.888305 198 189.39207 211.917115 189.656672 211.917115 192.206196 198 200 198"></polyline>
            <path d="M212.569235,203.763644 L212.383944,203.763644 L211.320012,216.923997 L213.588339,216.923997 L212.569235,203.763644 Z M214.377322,227 L213.866276,220.801662 L211.040082,220.801662 L210.577849,227 L204,227 L207.936947,198 L216.924582,198 L221,227 L214.377322,227 L214.377322,227 Z" id="Fill-20" fill="#000000"></path>
            <polyline id="Fill-21" fill="#000000" points="241 198 241 227 234.847396 227 231.090049 212.146317 230.913482 212.137426 231.14756 227 225 227 225 198 231.14756 198 234.85244 212.464434 235.182369 212.464434 235.182369 198 241 198"></polyline>
            <path d="M252.481927,202.675922 L252.297601,202.205662 L251.88777,201.878654 L251.387738,201.805546 L251.251454,201.805546 L250.74848,201.987327 L250.611216,222.796314 L250.928884,223.086768 L251.567161,223.192478 L251.797568,223.121346 L252.206419,222.976119 L252.481927,202.675922 Z M258.093078,199.377189 C258.698019,200.127035 259,201.577332 259,203.728078 L259,223.303127 L258.542127,225.04289 C258.089156,226.106902 257.055755,226.686823 255.443885,226.783641 L251.567161,227 L248.923851,226.965422 L246.553108,226.565306 C245.943264,226.420079 245.412837,226.117769 244.957906,225.658377 C244.409831,225.199973 244.136283,224.728725 244.136283,224.244634 L244,201.552633 C244.120596,200.949002 244.271586,200.404647 244.452971,199.920556 C244.904961,198.882231 245.962873,198.313177 247.626708,198.216359 L251.476959,198 L254.105562,198.108673 C254.739918,198.133372 255.313485,198.194624 255.828224,198.290454 C256.945944,198.459392 257.699915,198.822954 258.093078,199.377189 L258.093078,199.377189 Z" id="Fill-22" fill="#000000"></path>
        </g>
    </g>
</svg>
